<svg width="32" height="32" viewBox="0 0 32 32" fill="none" xmlns="http://www.w3.org/2000/svg">
<path d="M30.0533 8.56004C29.895 7.92725 29.5724 7.34747 29.1182 6.87925C28.664 6.41103 28.0943 6.07095 27.4667 5.89337C25.1733 5.33337 16 5.33337 16 5.33337C16 5.33337 6.82668 5.33337 4.53334 5.94671C3.90567 6.12429 3.33598 6.46436 2.8818 6.93258C2.42763 7.4008 2.10506 7.98059 1.94668 8.61337C1.52696 10.9408 1.32166 13.3018 1.33334 15.6667C1.31838 18.0494 1.5237 20.4284 1.94668 22.7734C2.12129 23.3865 2.45108 23.9442 2.9042 24.3927C3.35732 24.8411 3.91844 25.1651 4.53334 25.3334C6.82668 25.9467 16 25.9467 16 25.9467C16 25.9467 25.1733 25.9467 27.4667 25.3334C28.0943 25.1558 28.664 24.8157 29.1182 24.3475C29.5724 23.8793 29.895 23.2995 30.0533 22.6667C30.4698 20.3568 30.6751 18.0138 30.6667 15.6667C30.6816 13.284 30.4763 10.905 30.0533 8.56004Z" fill="#DA403A"/>
<path d="M13 20.0266L20.6667 15.6666L13 11.3066V20.0266Z" fill="#F4F7FC"/>
</svg>
