<svg width="16" height="17" viewBox="0 0 16 17" fill="none" xmlns="http://www.w3.org/2000/svg">
<g clip-path="url(#clip0)">
<path d="M0.967998 7.54066H12.3753C12.4091 7.54033 12.4419 7.52981 12.4696 7.51048C12.4972 7.49115 12.5184 7.4639 12.5303 7.43232C12.5422 7.40074 12.5443 7.36631 12.5363 7.33353C12.5282 7.30075 12.5105 7.27117 12.4853 7.24866L6.72733 2.18199C6.54631 2.01132 6.43862 1.77704 6.42695 1.52852C6.41529 1.28 6.50055 1.03666 6.66479 0.849779C6.82902 0.662898 7.05939 0.547075 7.30735 0.526719C7.55531 0.506363 7.80148 0.583065 7.994 0.740659L15.448 7.29999C15.6182 7.45014 15.7546 7.63479 15.848 7.84169C15.9414 8.04859 15.9897 8.27299 15.9897 8.49999C15.9897 8.72699 15.9414 8.9514 15.848 9.15829C15.7546 9.36519 15.6182 9.54985 15.448 9.69999L7.99533 16.258C7.80266 16.4136 7.55731 16.4887 7.31054 16.4677C7.06378 16.4467 6.83469 16.3311 6.67116 16.1451C6.50763 15.9591 6.4223 15.7171 6.43302 15.4696C6.44374 15.2222 6.54966 14.9885 6.72866 14.8173L12.4867 9.75066C12.5118 9.72815 12.5296 9.69857 12.5376 9.66579C12.5456 9.63301 12.5435 9.59857 12.5316 9.56699C12.5197 9.53542 12.4986 9.50817 12.4709 9.48884C12.4433 9.4695 12.4104 9.45898 12.3767 9.45866H0.967998C0.717858 9.45206 0.480177 9.34806 0.305586 9.16881C0.130995 8.98956 0.0332944 8.74922 0.0332944 8.49899C0.0332944 8.24876 0.130995 8.00843 0.305586 7.82917C0.480177 7.64992 0.717858 7.54592 0.967998 7.53933V7.54066Z" fill="#F4F7FC"/>
</g>
<defs>
<clipPath id="clip0">
<rect width="16" height="16" fill="white" transform="matrix(-1 0 0 1 16 0.5)"/>
</clipPath>
</defs>
</svg>
