<svg width="50" height="20" viewBox="0 0 50 20" fill="none" xmlns="http://www.w3.org/2000/svg">
<path d="M31.6829 13.5998H28.2916C28.1832 13.605 28.0809 13.6512 28.006 13.7288C27.9312 13.8065 27.8894 13.9096 27.8894 14.0168C27.8894 14.124 27.9312 14.2271 28.006 14.3047C28.0809 14.3824 28.1832 14.4286 28.2916 14.4338H31.6829C31.7213 14.4315 31.7597 14.437 31.7958 14.45C31.8319 14.4629 31.865 14.483 31.8929 14.509C31.9209 14.5351 31.9431 14.5664 31.9584 14.6013C31.9736 14.6361 31.9814 14.6736 31.9814 14.7116C31.9814 14.7495 31.9736 14.7871 31.9584 14.8219C31.9431 14.8567 31.9209 14.8881 31.8929 14.9141C31.865 14.9401 31.8319 14.9602 31.7958 14.9732C31.7597 14.9861 31.7213 14.9916 31.6829 14.9894H25.2703C25.1958 14.9891 25.1244 14.9597 25.0717 14.9075C25.0191 14.8554 24.9896 14.7847 24.9896 14.7111V5.1555C24.9938 5.08467 25.0253 5.01812 25.0776 4.96946C25.1299 4.9208 25.199 4.8937 25.2708 4.8937C25.3427 4.8937 25.4118 4.9208 25.4641 4.96946C25.5164 5.01812 25.5479 5.08467 25.5521 5.1555V13.6998C25.5521 13.9945 25.6707 14.2772 25.8817 14.4856C26.0927 14.694 26.3789 14.811 26.6773 14.811C26.9757 14.811 27.2619 14.694 27.4729 14.4856C27.6839 14.2772 27.8024 13.9945 27.8024 13.6998V10.9559H31.2751C31.5736 10.9559 31.8597 10.8388 32.0708 10.6304C32.2818 10.422 32.4003 10.1393 32.4003 9.84461C32.4003 9.54988 32.2818 9.26722 32.0708 9.05882C31.8597 8.85041 31.5736 8.73333 31.2751 8.73333H27.8024V6.40005H31.552C31.8504 6.40005 32.1366 6.28297 32.3476 6.07457C32.5586 5.86616 32.6771 5.5835 32.6771 5.28878C32.6771 4.99405 32.5586 4.71139 32.3476 4.50299C32.1366 4.29458 31.8504 4.1775 31.552 4.1775H26.8886C26.7802 4.18269 26.6779 4.22889 26.6031 4.30652C26.5282 4.38415 26.4864 4.48726 26.4864 4.59447C26.4864 4.70169 26.5282 4.8048 26.6031 4.88243C26.6779 4.96006 26.7802 5.00625 26.8886 5.01145H31.552C31.5903 5.0092 31.6287 5.01471 31.6648 5.02766C31.7009 5.0406 31.734 5.0607 31.7619 5.08672C31.7899 5.11274 31.8122 5.14413 31.8274 5.17896C31.8426 5.21379 31.8505 5.25133 31.8505 5.28927C31.8505 5.3272 31.8426 5.36474 31.8274 5.39957C31.8122 5.4344 31.7899 5.46579 31.7619 5.49181C31.734 5.51783 31.7009 5.53793 31.6648 5.55087C31.6287 5.56382 31.5903 5.56933 31.552 5.56708H27.3847C27.2729 5.56708 27.1656 5.61096 27.0866 5.68907C27.0075 5.76717 26.963 5.87311 26.963 5.98357V9.14982C26.963 9.26028 27.0075 9.36621 27.0866 9.44432C27.1656 9.52242 27.2729 9.5663 27.3847 9.5663H31.2831C31.3214 9.56405 31.3598 9.56957 31.3959 9.58251C31.432 9.59546 31.4651 9.61555 31.493 9.64157C31.521 9.66759 31.5433 9.69898 31.5585 9.73381C31.5737 9.76864 31.5816 9.80618 31.5816 9.84412C31.5816 9.88206 31.5737 9.91959 31.5585 9.95443C31.5433 9.98926 31.521 10.0206 31.493 10.0467C31.4651 10.0727 31.432 10.0928 31.3959 10.1057C31.3598 10.1187 31.3214 10.1242 31.2831 10.1219H27.3847C27.2728 10.1222 27.1655 10.1663 27.0865 10.2446C27.0074 10.3228 26.963 10.4289 26.963 10.5394V13.6998C26.9653 13.7376 26.9597 13.7756 26.9466 13.8112C26.9335 13.8469 26.9132 13.8795 26.8868 13.9071C26.8605 13.9348 26.8287 13.9568 26.7934 13.9718C26.7582 13.9868 26.7202 13.9946 26.6818 13.9946C26.6433 13.9946 26.6053 13.9868 26.5701 13.9718C26.5348 13.9568 26.503 13.9348 26.4767 13.9071C26.4503 13.8795 26.43 13.8469 26.4169 13.8112C26.4038 13.7756 26.3982 13.7376 26.4005 13.6998V5.1555C26.4049 5.00685 26.3792 4.85883 26.3246 4.72021C26.2701 4.58158 26.188 4.45517 26.0831 4.34847C25.9783 4.24176 25.8528 4.15693 25.7141 4.09901C25.5754 4.04108 25.4264 4.01123 25.2758 4.01123C25.1252 4.01123 24.9762 4.04108 24.8375 4.09901C24.6988 4.15693 24.5734 4.24176 24.4685 4.34847C24.3636 4.45517 24.2815 4.58158 24.227 4.72021C24.1725 4.85883 24.1467 5.00685 24.1511 5.1555V14.7111C24.1511 15.0056 24.2696 15.2882 24.4803 15.4965C24.6911 15.7049 24.9771 15.8221 25.2753 15.8224H31.6879C31.9863 15.8224 32.2725 15.7053 32.4835 15.4969C32.6945 15.2885 32.8131 15.0058 32.8131 14.7111C32.8131 14.4164 32.6945 14.1337 32.4835 13.9253C32.2725 13.7169 31.9863 13.5998 31.6879 13.5998" fill="#E40521"/>
<path d="M6.40961 5.01145C6.40961 4.79027 6.49857 4.57815 6.65692 4.42176C6.81527 4.26536 7.03004 4.1775 7.25398 4.1775H9.03994C10.0544 4.1775 11.0273 4.57551 11.7446 5.28398C12.4619 5.99244 12.8649 6.95333 12.8649 7.95525C12.8649 8.95717 12.4619 9.91805 11.7446 10.6265C11.0273 11.335 10.0544 11.733 9.03994 11.733H8.55872C8.26031 11.733 7.97412 11.6159 7.76311 11.4075C7.55211 11.1991 7.43356 10.9164 7.43356 10.6217C7.43356 10.327 7.55211 10.0443 7.76311 9.83593C7.97412 9.62752 8.26031 9.51044 8.55872 9.51044H9.03795C9.24813 9.51565 9.45723 9.47927 9.65295 9.40343C9.84866 9.32759 10.027 9.21383 10.1775 9.06886C10.3281 8.92389 10.4477 8.75063 10.5294 8.55929C10.611 8.36795 10.6531 8.1624 10.6531 7.95476C10.6531 7.74711 10.611 7.54156 10.5294 7.35023C10.4477 7.15889 10.3281 6.98563 10.1775 6.84065C10.027 6.69568 9.84866 6.58192 9.65295 6.50608C9.45723 6.43025 9.24813 6.39386 9.03795 6.39907H7.85525C7.74341 6.39907 7.63615 6.35519 7.55707 6.27709C7.47799 6.19898 7.43356 6.09305 7.43356 5.98259C7.43356 5.87213 7.47799 5.7662 7.55707 5.68809C7.63615 5.60998 7.74341 5.5661 7.85525 5.5661H9.03795C9.35967 5.55967 9.67946 5.61669 9.97859 5.73384C10.2777 5.85099 10.5502 6.02591 10.78 6.24836C11.0098 6.4708 11.1924 6.7363 11.3171 7.02931C11.4417 7.32231 11.5059 7.63694 11.5059 7.95476C11.5059 8.27258 11.4417 8.5872 11.3171 8.88021C11.1924 9.17321 11.0098 9.43871 10.78 9.66116C10.5502 9.8836 10.2777 10.0585 9.97859 10.1757C9.67946 10.2928 9.35967 10.3498 9.03795 10.3434H8.55872C8.52038 10.3412 8.48197 10.3467 8.44586 10.3596C8.40976 10.3726 8.37671 10.3927 8.34875 10.4187C8.3208 10.4447 8.29852 10.4761 8.2833 10.5109C8.26807 10.5458 8.26022 10.5833 8.26022 10.6212C8.26022 10.6592 8.26807 10.6967 8.2833 10.7315C8.29852 10.7664 8.3208 10.7978 8.34875 10.8238C8.37671 10.8498 8.40976 10.8699 8.44586 10.8828C8.48197 10.8958 8.52038 10.9013 8.55872 10.899H9.03795C9.82858 10.899 10.5868 10.5888 11.1459 10.0367C11.7049 9.48452 12.019 8.73563 12.019 7.95476C12.019 7.17388 11.7049 6.42499 11.1459 5.87283C10.5868 5.32067 9.82858 5.01047 9.03795 5.01047H7.53477C7.49756 5.01046 7.46072 5.01776 7.42639 5.03195C7.39206 5.04613 7.36093 5.06691 7.3348 5.09308C7.30868 5.11924 7.28808 5.15028 7.2742 5.18438C7.26032 5.21848 7.25345 5.25497 7.25398 5.29172V14.8159C7.25691 15.1053 7.14763 15.3848 6.94855 15.597C6.74948 15.8093 6.47571 15.9383 6.18339 15.9576C6.03116 15.965 5.87898 15.9418 5.73611 15.8894C5.59324 15.8369 5.46267 15.7563 5.35232 15.6525C5.24198 15.5486 5.15417 15.4237 5.09423 15.2853C5.03429 15.1469 5.00348 14.9978 5.00367 14.8473V5.1555C4.9994 5.08467 4.96791 5.01812 4.91563 4.96946C4.86335 4.9208 4.79422 4.8937 4.72238 4.8937C4.65054 4.8937 4.58141 4.9208 4.52912 4.96946C4.47684 5.01812 4.44535 5.08467 4.44109 5.1555V15.4951C4.44109 15.6055 4.39666 15.7114 4.31758 15.7896C4.2385 15.8677 4.13124 15.9115 4.0194 15.9115C3.90756 15.9115 3.80031 15.8677 3.72123 15.7896C3.64214 15.7114 3.59772 15.6055 3.59772 15.4951V5.1555C3.59325 5.00685 3.61903 4.85883 3.67354 4.72021C3.72805 4.58158 3.81017 4.45517 3.91505 4.34847C4.01992 4.24176 4.14542 4.15693 4.28409 4.09901C4.42277 4.04108 4.57181 4.01123 4.72238 4.01123C4.87295 4.01123 5.02198 4.04108 5.16066 4.09901C5.29934 4.15693 5.42483 4.24176 5.52971 4.34847C5.63458 4.45517 5.71671 4.58158 5.77122 4.72021C5.82572 4.85883 5.85151 5.00685 5.84704 5.1555V14.8444C5.84697 14.8822 5.85475 14.9197 5.8699 14.9545C5.88506 14.9893 5.90726 15.0206 5.93515 15.0466C5.96304 15.0726 5.99602 15.0926 6.03205 15.1056C6.06809 15.1185 6.10643 15.124 6.1447 15.1217C6.21855 15.1152 6.28714 15.0813 6.33653 15.0266C6.38592 14.972 6.41241 14.9009 6.41061 14.8277L6.40961 5.01145Z" fill="#F4F7FC"/>
<path d="M16.3525 5.01153C16.3523 4.90206 16.374 4.79364 16.4164 4.69247C16.4587 4.5913 16.5208 4.49935 16.5991 4.4219C16.6774 4.34445 16.7705 4.28301 16.8729 4.24109C16.9752 4.19916 17.085 4.17759 17.1958 4.17759H19.2407C20.0517 4.17747 20.8389 4.4478 21.4749 4.94479C22.1109 5.44177 22.5583 6.13629 22.7446 6.9158C22.931 7.69531 22.8454 8.51414 22.5017 9.2396C22.1581 9.96507 21.5764 10.5547 20.8511 10.9129L23.0339 14.2388C23.1821 14.4855 23.228 14.7793 23.1619 15.0586C23.0959 15.338 22.923 15.5813 22.6795 15.7376C22.4359 15.8939 22.1406 15.9512 21.8554 15.8974C21.5701 15.8437 21.3169 15.683 21.1488 15.4491L17.3784 9.71044C17.3369 9.6476 17.3134 9.57487 17.3104 9.49993C17.3073 9.42498 17.3248 9.35062 17.3609 9.28467C17.3971 9.21873 17.4507 9.16366 17.5159 9.12527C17.5811 9.08689 17.6557 9.06662 17.7316 9.06661H19.2417C19.4221 9.07144 19.6016 9.04052 19.7696 8.97569C19.9377 8.91086 20.0909 8.81343 20.2202 8.68915C20.3495 8.56487 20.4522 8.41626 20.5224 8.2521C20.5926 8.08794 20.6287 7.91156 20.6287 7.73337C20.6287 7.55518 20.5926 7.3788 20.5224 7.21464C20.4522 7.05048 20.3495 6.90187 20.2202 6.77759C20.0909 6.65331 19.9377 6.55588 19.7696 6.49105C19.6016 6.42622 19.4221 6.39531 19.2417 6.40013H17.7981C17.7409 6.40287 17.6838 6.39412 17.6302 6.3744C17.5765 6.35468 17.5275 6.32441 17.4861 6.28542C17.4446 6.24643 17.4116 6.19953 17.3891 6.14758C17.3666 6.09562 17.3549 6.03969 17.3549 5.98316C17.3549 5.92664 17.3666 5.8707 17.3891 5.81875C17.4116 5.76679 17.4446 5.7199 17.4861 5.68091C17.5275 5.64192 17.5765 5.61165 17.6302 5.59193C17.6838 5.57221 17.7409 5.56345 17.7981 5.56619H19.2407C19.8226 5.56619 20.3806 5.79446 20.792 6.2008C21.2034 6.60713 21.4345 7.15824 21.4345 7.73288C21.4345 8.30752 21.2034 8.85863 20.792 9.26496C20.3806 9.6713 19.8226 9.89957 19.2407 9.89957H18.5075L21.8582 14.9954C21.8783 15.0259 21.9043 15.0523 21.9348 15.0729C21.9652 15.0935 21.9995 15.108 22.0356 15.1156C22.0717 15.1231 22.109 15.1236 22.1453 15.1169C22.1816 15.1103 22.2162 15.0966 22.2471 15.0767C22.2781 15.0568 22.3047 15.0311 22.3256 15.001C22.3465 14.971 22.3612 14.9371 22.3688 14.9015C22.3765 14.8658 22.377 14.829 22.3702 14.7931C22.3634 14.7573 22.3496 14.7231 22.3295 14.6926L19.7626 10.7894C19.7385 10.7523 19.7235 10.7101 19.7191 10.6663C19.7146 10.6224 19.7208 10.5781 19.7371 10.537C19.7533 10.496 19.7793 10.4593 19.8127 10.4301C19.8461 10.4009 19.8861 10.3799 19.9293 10.369C20.5791 10.2035 21.1454 9.80963 21.522 9.26122C21.8987 8.71282 22.06 8.04753 21.9755 7.39011C21.891 6.73269 21.5666 6.12828 21.0631 5.6902C20.5597 5.25213 19.9117 5.01047 19.2407 5.01055H17.4766C17.4394 5.01055 17.4026 5.01785 17.3682 5.03203C17.3339 5.04621 17.3028 5.06699 17.2767 5.09316C17.2505 5.11933 17.2299 5.15037 17.216 5.18447C17.2022 5.21857 17.1953 5.25505 17.1958 5.2918V14.816C17.199 15.1054 17.0898 15.385 16.8907 15.5974C16.6916 15.8097 16.4176 15.9387 16.1252 15.9577C15.973 15.965 15.8209 15.9417 15.6781 15.8892C15.5353 15.8367 15.4048 15.756 15.2945 15.6522C15.1842 15.5484 15.0963 15.4235 15.0364 15.2852C14.9764 15.1468 14.9455 14.9979 14.9455 14.8474V5.15559C14.9413 5.08476 14.9098 5.01821 14.8575 4.96955C14.8052 4.92089 14.7361 4.89378 14.6642 4.89378C14.5924 4.89378 14.5233 4.92089 14.471 4.96955C14.4187 5.01821 14.3872 5.08476 14.3829 5.15559V15.4951C14.3829 15.6056 14.3385 15.7115 14.2594 15.7896C14.1803 15.8677 14.0731 15.9116 13.9613 15.9116C13.8494 15.9116 13.7422 15.8677 13.6631 15.7896C13.584 15.7115 13.5396 15.6056 13.5396 15.4951V5.15559C13.5396 4.86086 13.6581 4.5782 13.8691 4.3698C14.0801 4.16139 14.3663 4.04431 14.6647 4.04431C14.9631 4.04431 15.2493 4.16139 15.4603 4.3698C15.6713 4.5782 15.7899 4.86086 15.7899 5.15559V14.8444C15.7898 14.8823 15.7976 14.9198 15.8127 14.9546C15.8279 14.9894 15.8501 15.0207 15.878 15.0467C15.9059 15.0727 15.9389 15.0927 15.9749 15.1056C16.0109 15.1186 16.0493 15.1241 16.0875 15.1218C16.1616 15.1156 16.2304 15.0817 16.28 15.027C16.3296 14.9724 16.3562 14.9011 16.3544 14.8278L16.3525 5.01153Z" fill="#F4F7FC"/>
<path opacity="0.4" d="M45.1641 17.3984L49.1562 3.72656H47.9922L44 17.3984H45.1641Z" fill="#BBC1D1"/>
</svg>
