<svg width="144" height="80" viewBox="0 0 144 80" fill="none" xmlns="http://www.w3.org/2000/svg">
<path d="M126.732 54.3995H113.166C112.733 54.4203 112.324 54.6051 112.024 54.9156C111.725 55.2261 111.558 55.6385 111.558 56.0674C111.558 56.4963 111.725 56.9087 112.024 57.2192C112.324 57.5297 112.733 57.7145 113.166 57.7353H126.732C126.885 57.7263 127.039 57.7484 127.183 57.8001C127.328 57.8519 127.46 57.9323 127.572 58.0364C127.683 58.1405 127.772 58.266 127.833 58.4053C127.894 58.5447 127.926 58.6948 127.926 58.8466C127.926 58.9983 127.894 59.1485 127.833 59.2878C127.772 59.4271 127.683 59.5527 127.572 59.6567C127.46 59.7608 127.328 59.8412 127.183 59.893C127.039 59.9448 126.885 59.9668 126.732 59.9578H101.081C100.783 59.9568 100.497 59.8391 100.287 59.6304C100.076 59.4217 99.9582 59.1392 99.9582 58.8446V20.6222C99.9752 20.3389 100.101 20.0727 100.31 19.8781C100.519 19.6834 100.796 19.575 101.083 19.575C101.371 19.575 101.647 19.6834 101.856 19.8781C102.065 20.0727 102.191 20.3389 102.208 20.6222V54.7993C102.208 55.9782 102.683 57.1089 103.527 57.9425C104.371 58.7761 105.515 59.2444 106.709 59.2444C107.903 59.2444 109.047 58.7761 109.892 57.9425C110.736 57.1089 111.21 55.9782 111.21 54.7993V43.8238H125.101C126.294 43.8238 127.439 43.3555 128.283 42.5218C129.127 41.6882 129.601 40.5576 129.601 39.3787C129.601 38.1998 129.127 37.0691 128.283 36.2355C127.439 35.4019 126.294 34.9336 125.101 34.9336H111.21V25.6004H126.208C127.401 25.6004 128.546 25.1321 129.39 24.2985C130.234 23.4649 130.708 22.3343 130.708 21.1553C130.708 19.9764 130.234 18.8458 129.39 18.0122C128.546 17.1786 127.401 16.7103 126.208 16.7103H107.554C107.121 16.731 106.712 16.9158 106.412 17.2263C106.113 17.5368 105.946 17.9493 105.946 18.3781C105.946 18.807 106.113 19.2194 106.412 19.53C106.712 19.8405 107.121 20.0253 107.554 20.046H126.208C126.361 20.037 126.515 20.0591 126.659 20.1109C126.804 20.1627 126.936 20.243 127.048 20.3471C127.16 20.4512 127.249 20.5768 127.31 20.7161C127.37 20.8554 127.402 21.0056 127.402 21.1573C127.402 21.3091 127.37 21.4592 127.31 21.5985C127.249 21.7379 127.16 21.8634 127.048 21.9675C126.936 22.0716 126.804 22.152 126.659 22.2037C126.515 22.2555 126.361 22.2776 126.208 22.2686H109.539C109.091 22.2686 108.662 22.4441 108.346 22.7565C108.03 23.0689 107.852 23.4927 107.852 23.9345V36.5995C107.852 37.0413 108.03 37.4651 108.346 37.7775C108.662 38.0899 109.091 38.2654 109.539 38.2654H125.132C125.286 38.2564 125.439 38.2785 125.584 38.3303C125.728 38.3821 125.86 38.4625 125.972 38.5665C126.084 38.6706 126.173 38.7962 126.234 38.9355C126.295 39.0748 126.326 39.225 126.326 39.3767C126.326 39.5285 126.295 39.6786 126.234 39.8179C126.173 39.9573 126.084 40.0828 125.972 40.1869C125.86 40.291 125.728 40.3714 125.584 40.4232C125.439 40.4749 125.286 40.497 125.132 40.488H109.539C109.091 40.489 108.662 40.6654 108.346 40.9785C108.03 41.2915 107.852 41.7157 107.852 42.1578V54.7993C107.861 54.9508 107.839 55.1025 107.786 55.2452C107.734 55.3878 107.653 55.5184 107.547 55.6288C107.442 55.7393 107.315 55.8273 107.174 55.8874C107.033 55.9476 106.881 55.9786 106.727 55.9786C106.573 55.9786 106.421 55.9476 106.28 55.8874C106.139 55.8273 106.012 55.7393 105.907 55.6288C105.801 55.5184 105.72 55.3878 105.667 55.2452C105.615 55.1025 105.593 54.9508 105.602 54.7993V20.6222C105.62 20.0277 105.517 19.4356 105.299 18.8811C105.08 18.3266 104.752 17.8209 104.332 17.3941C103.913 16.9673 103.411 16.628 102.856 16.3963C102.302 16.1646 101.705 16.0452 101.103 16.0452C100.501 16.0452 99.9047 16.1646 99.35 16.3963C98.7953 16.628 98.2933 16.9673 97.8738 17.3941C97.4543 17.8209 97.1258 18.3266 96.9078 18.8811C96.6898 19.4356 96.5866 20.0277 96.6045 20.6222V58.8446C96.6045 60.0228 97.0781 61.1529 97.9213 61.9864C98.7645 62.8199 99.9082 63.2887 101.101 63.2897H126.752C127.945 63.2897 129.09 62.8214 129.934 61.9878C130.778 61.1541 131.252 60.0235 131.252 58.8446C131.252 57.6657 130.778 56.5351 129.934 55.7014C129.09 54.8678 127.945 54.3995 126.752 54.3995" fill="#E40521"/>
<path d="M25.6385 20.046C25.6385 19.1613 25.9943 18.3129 26.6277 17.6873C27.2611 17.0617 28.1202 16.7103 29.0159 16.7103H36.1598C40.2175 16.7103 44.1091 18.3023 46.9783 21.1362C49.8476 23.97 51.4595 27.8135 51.4595 31.8212C51.4595 35.8289 49.8476 39.6724 46.9783 42.5063C44.1091 45.3402 40.2175 46.9322 36.1598 46.9322H34.2349C33.0413 46.9322 31.8965 46.4639 31.0525 45.6303C30.2085 44.7967 29.7343 43.666 29.7343 42.4871C29.7343 41.3082 30.2085 40.1776 31.0525 39.344C31.8965 38.5103 33.0413 38.042 34.2349 38.042H36.1518C36.9925 38.0629 37.829 37.9173 38.6118 37.614C39.3947 37.3106 40.1082 36.8556 40.7102 36.2757C41.3123 35.6958 41.7908 35.0027 42.1175 34.2374C42.4441 33.472 42.6124 32.6499 42.6124 31.8193C42.6124 30.9887 42.4441 30.1665 42.1175 29.4011C41.7908 28.6358 41.3123 27.9428 40.7102 27.3629C40.1082 26.783 39.3947 26.3279 38.6118 26.0246C37.829 25.7212 36.9925 25.5757 36.1518 25.5965H31.421C30.9737 25.5965 30.5446 25.421 30.2283 25.1086C29.912 24.7962 29.7343 24.3724 29.7343 23.9306C29.7343 23.4888 29.912 23.065 30.2283 22.7526C30.5446 22.4402 30.9737 22.2647 31.421 22.2647H36.1518C37.4387 22.2389 38.7179 22.467 39.9144 22.9356C41.1109 23.4042 42.2008 24.1039 43.1201 24.9937C44.0394 25.8835 44.7697 26.9454 45.2683 28.1175C45.7669 29.2895 46.0237 30.548 46.0237 31.8193C46.0237 33.0905 45.7669 34.349 45.2683 35.5211C44.7697 36.6931 44.0394 37.7551 43.1201 38.6449C42.2008 39.5346 41.1109 40.2343 39.9144 40.7029C38.7179 41.1715 37.4387 41.3996 36.1518 41.3739H34.2349C34.0815 41.3649 33.9279 41.3869 33.7835 41.4387C33.6391 41.4905 33.5069 41.5709 33.395 41.675C33.2832 41.779 33.1941 41.9046 33.1332 42.0439C33.0723 42.1833 33.0409 42.3334 33.0409 42.4852C33.0409 42.6369 33.0723 42.7871 33.1332 42.9264C33.1941 43.0657 33.2832 43.1913 33.395 43.2953C33.5069 43.3994 33.6391 43.4798 33.7835 43.5316C33.9279 43.5834 34.0815 43.6054 34.2349 43.5964H36.1518C39.3144 43.5964 42.3473 42.3556 44.5836 40.147C46.8198 37.9383 48.0761 34.9428 48.0761 31.8193C48.0761 28.6958 46.8198 25.7002 44.5836 23.4916C42.3473 21.2829 39.3144 20.0421 36.1518 20.0421H30.1391C29.9903 20.0421 29.8429 20.0713 29.7056 20.128C29.5683 20.1848 29.4437 20.2679 29.3392 20.3725C29.2347 20.4772 29.1523 20.6014 29.0968 20.7378C29.0413 20.8742 29.0138 21.0201 29.0159 21.1671V59.264C29.0277 60.4214 28.5905 61.5393 27.7943 62.3884C26.998 63.2376 25.9029 63.7536 24.7336 63.8306C24.1247 63.8604 23.5159 63.7675 22.9445 63.5577C22.373 63.3479 21.8507 63.0255 21.4093 62.6101C20.9679 62.1947 20.6167 61.695 20.3769 61.1413C20.1372 60.5877 20.0139 59.9916 20.0147 59.3895V20.6222C19.9976 20.3389 19.8717 20.0727 19.6625 19.8781C19.4534 19.6834 19.1769 19.575 18.8895 19.575C18.6022 19.575 18.3257 19.6834 18.1165 19.8781C17.9074 20.0727 17.7814 20.3389 17.7644 20.6222V61.9805C17.7644 62.4223 17.5867 62.846 17.2703 63.1585C16.954 63.4709 16.525 63.6464 16.0776 63.6464C15.6303 63.6464 15.2013 63.4709 14.8849 63.1585C14.5686 62.846 14.3909 62.4223 14.3909 61.9805V20.6222C14.373 20.0277 14.4761 19.4356 14.6942 18.8811C14.9122 18.3266 15.2407 17.8209 15.6602 17.3941C16.0797 16.9673 16.5817 16.628 17.1364 16.3963C17.6911 16.1646 18.2873 16.0452 18.8895 16.0452C19.4918 16.0452 20.088 16.1646 20.6427 16.3963C21.1974 16.628 21.6994 16.9673 22.1189 17.3941C22.5384 17.8209 22.8669 18.3266 23.0849 18.8811C23.3029 19.4356 23.4061 20.0277 23.3882 20.6222V59.3777C23.3879 59.5292 23.419 59.6791 23.4796 59.8182C23.5403 59.9573 23.6291 60.0827 23.7406 60.1866C23.8522 60.2906 23.9841 60.3708 24.1283 60.4225C24.2724 60.4742 24.4257 60.4961 24.5788 60.487C24.8742 60.4612 25.1486 60.3253 25.3461 60.1068C25.5437 59.8884 25.6497 59.6039 25.6425 59.3111L25.6385 20.046Z" fill="#1C2F67"/>
<path d="M65.4098 20.046C65.4092 19.6081 65.4961 19.1744 65.6654 18.7698C65.8347 18.3651 66.0831 17.9973 66.3964 17.6875C66.7097 17.3777 67.0818 17.1319 67.4913 16.9642C67.9009 16.7965 68.3399 16.7102 68.7832 16.7102H76.9629C80.2067 16.7097 83.3557 17.7911 85.8995 19.779C88.4433 21.767 90.233 24.545 90.9785 27.6631C91.724 30.7811 91.3816 34.0564 90.0069 36.9583C88.6322 39.8602 86.3057 42.2185 83.4043 43.6513L92.1357 56.9552C92.7285 57.9421 92.9119 59.1171 92.6477 60.2344C92.3834 61.3518 91.6919 62.325 90.7178 62.9503C89.7437 63.5756 88.5625 63.8047 87.4213 63.5896C86.2801 63.3745 85.2674 62.7319 84.5949 61.7962L69.5135 38.8416C69.3477 38.5903 69.2537 38.2993 69.2414 37.9996C69.2291 37.6998 69.299 37.4023 69.4437 37.1386C69.5884 36.8748 69.8026 36.6545 70.0636 36.501C70.3245 36.3474 70.6226 36.2664 70.9264 36.2663H76.9669C77.6883 36.2856 78.4063 36.162 79.0785 35.9027C79.7507 35.6433 80.3635 35.2536 80.8807 34.7565C81.3978 34.2594 81.8089 33.6649 82.0896 33.0083C82.3702 32.3517 82.5148 31.6461 82.5148 30.9334C82.5148 30.2206 82.3702 29.5151 82.0896 28.8584C81.8089 28.2018 81.3978 27.6074 80.8807 27.1102C80.3635 26.6131 79.7507 26.2234 79.0785 25.9641C78.4063 25.7048 77.6883 25.5811 76.9669 25.6004H71.1923C70.9636 25.6114 70.7351 25.5763 70.5206 25.4975C70.306 25.4186 70.11 25.2975 69.9442 25.1415C69.7785 24.9856 69.6465 24.798 69.5563 24.5902C69.4662 24.3824 69.4197 24.1586 69.4197 23.9325C69.4197 23.7064 69.4662 23.4827 69.5563 23.2749C69.6465 23.067 69.7785 22.8795 69.9442 22.7235C70.11 22.5676 70.306 22.4465 70.5206 22.3676C70.7351 22.2887 70.9636 22.2537 71.1923 22.2646H76.9629C79.2902 22.2646 81.5222 23.1777 83.1678 24.8031C84.8134 26.4284 85.738 28.6328 85.738 30.9314C85.738 33.23 84.8134 35.4344 83.1678 37.0597C81.5222 38.6851 79.2902 39.5982 76.9629 39.5982H74.03L87.4326 59.9813C87.5132 60.1036 87.6173 60.209 87.739 60.2915C87.8608 60.374 87.9978 60.432 88.1423 60.4622C88.2868 60.4925 88.4358 60.4943 88.581 60.4676C88.7262 60.4409 88.8646 60.3862 88.9884 60.3067C89.1122 60.2271 89.2189 60.1243 89.3024 60.0041C89.386 59.8838 89.4447 59.7485 89.4753 59.6058C89.5059 59.4631 89.5077 59.3159 89.4807 59.1725C89.4537 59.0291 89.3983 58.8924 89.3178 58.7701L79.0505 43.1574C78.9537 43.0092 78.894 42.8404 78.8762 42.6649C78.8584 42.4894 78.8831 42.3123 78.9482 42.1481C79.0133 41.9838 79.117 41.8373 79.2507 41.7204C79.3844 41.6035 79.5443 41.5196 79.7173 41.4758C82.3162 40.8139 84.5813 39.2384 86.0881 37.0448C87.5949 34.8511 88.2397 32.19 87.9018 29.5603C87.5639 26.9306 86.2664 24.513 84.2525 22.7607C82.2387 21.0084 79.6468 20.0418 76.9629 20.0421H69.9064C69.7576 20.0421 69.6102 20.0713 69.4729 20.128C69.3356 20.1847 69.211 20.2678 69.1065 20.3725C69.002 20.4772 68.9196 20.6013 68.8641 20.7377C68.8086 20.8741 68.7811 21.0201 68.7832 21.1671V59.264C68.7959 60.4216 68.3591 61.5401 67.5626 62.3894C66.7662 63.2388 65.6705 63.7545 64.5009 63.8306C63.8921 63.8598 63.2836 63.7666 62.7124 63.5565C62.1412 63.3465 61.6191 63.0241 61.1778 62.6088C60.7366 62.1935 60.3853 61.694 60.1454 61.1406C59.9054 60.5872 59.7818 59.9914 59.782 59.3894V20.6222C59.7649 20.3389 59.639 20.0727 59.4298 19.8781C59.2207 19.6834 58.9442 19.575 58.6568 19.575C58.3695 19.575 58.093 19.6834 57.8838 19.8781C57.6747 20.0727 57.5487 20.3389 57.5317 20.6222V61.9804C57.5317 62.4223 57.354 62.846 57.0376 63.1584C56.7213 63.4709 56.2923 63.6464 55.8449 63.6464C55.3976 63.6464 54.9686 63.4709 54.6522 63.1584C54.3359 62.846 54.1582 62.4223 54.1582 61.9804V20.6222C54.1582 19.4433 54.6324 18.3127 55.4764 17.4791C56.3204 16.6454 57.4652 16.1771 58.6588 16.1771C59.8525 16.1771 60.9972 16.6454 61.8412 17.4791C62.6853 18.3127 63.1594 19.4433 63.1594 20.6222V59.3777C63.1592 59.5291 63.1903 59.679 63.2509 59.8182C63.3115 59.9573 63.4003 60.0827 63.5119 60.1866C63.6234 60.2905 63.7554 60.3708 63.8995 60.4225C64.0437 60.4741 64.197 60.4961 64.3501 60.487C64.6462 60.4621 64.9215 60.3266 65.1199 60.1081C65.3183 59.8895 65.4248 59.6045 65.4177 59.311L65.4098 20.046Z" fill="#1C2F67"/>
</svg>
